#!OML:ASF F:\VICON\USERDATA\INSTALL\rory3\rory3.ASF
:FULLY-SPECIFIED
:DEGREES
745
root 1.90879 17.5517 1.70967 25.5989 -38.9032 348.272
lowerback -16.7471 4.53287 0.058755
upperback -11.728 5.62868 -3.50748
thorax -2.82318 2.58994 -2.93184
lowerneck -9.03584 10.948 2.60029
upperneck 37.3082 17.6516 -4.89768
head 15.3236 7.06928 0.221201
rclavicle 7.11649e-014 1.90833e-014
rhumerus -74.9176 -69.4764 54.599
rradius 13.2813
rwrist 71.4079
rhand -10.931 8.03904
rfingers 7.12502
rthumb 15.087 -21.3912
lclavicle 7.11649e-014 1.90833e-014
lhumerus -19.7116 18.6948 12.6664
lradius 16.2059
lwrist -68.315
lhand -9.2369 22.4442
lfingers 7.12502
lthumb 16.7184 51.7443
rfemur -32.1488 9.0447 15.5119
rtibia 39.3411
rfoot -26.9028 -38.0943
rtoes 47.368
lfemur -26.7734 -13.3648 -13.0971
ltibia 39.7379
lfoot -16.2584 24.3946
ltoes -20.331
746
root 1.99982 17.595 1.83155 25.8817 -36.9086 348.406
lowerback -16.9075 4.71733 0.588823
upperback -11.6664 5.82743 -3.66982
thorax -2.59583 2.66673 -3.35051
lowerneck -8.98324 10.2943 2.05116
upperneck 37.4884 16.595 -4.31962
head 15.198 6.63765 0.359253
rclavicle 7.55382e-015 7.4743e-014
rhumerus -65.3404 -69.7095 44.1882
rradius 12.9655
rwrist 70.9255
rhand -9.79013 10.7032
rfingers 7.12502
rthumb 16.1857 -18.641
lclavicle 7.55382e-015 7.4743e-014
lhumerus -19.6081 19.5924 13.2978
lradius 16.0264
lwrist -69.4663
lhand -8.47575 22.3649
lfingers 7.12502
lthumb 17.451 51.6015
rfemur -33.4723 9.32934 16.4721
rtibia 39.5365
rfoot -26.2254 -38.487
rtoes 45.0492
lfemur -27.6703 -13.589 -12.8068
ltibia 39.6874
lfoot -13.5285 23.6325
ltoes -23.9307
747
root 2.09265 17.6301 1.93801 25.8286 -35.0475 349.05
lowerback -16.6202 4.83703 0.539897
upperback -11.808 6.004 -3.86635
thorax -2.87223 2.75574 -3.53445
lowerneck -8.56789 9.59826 1.56429
upperneck 37.6632 15.5193 -3.91347
head 15.0325 6.19339 0.39903
rclavicle 1.07344e-014 -1.90833e-014
rhumerus -62.6164 -71.137 41.0696
rradius 12.8617
rwrist 73.3144
rhand -9.55391 11.9534
rfingers 7.12502
rthumb 16.4132 -17.3722
lclavicle 1.07344e-014 -1.90833e-014
lhumerus -19.5452 19.8237 14.2261
lradius 15.9204
lwrist -70.3228
lhand -8.231 22.4503
lfingers 7.12502
lthumb 17.6866 51.6659
rfemur -35.0271 9.68854 16.9207
rtibia 39.8167
rfoot -23.0402 -39.676
rtoes 41.097
lfemur -28.5003 -13.3853 -13.1138
ltibia 39.5732
lfoot -9.81468 22.7578
ltoes -30.6918
748
root 2.17864 17.6729 2.03868 25.7362 -33.2256 349.864
lowerback -16.6015 4.79088 0.199913
upperback -11.753 6.00601 -3.98226
thorax -2.84294 2.78101 -3.46656
lowerneck -8.53212 9.11179 1.68117
upperneck 37.9265 14.8645 -4.07104
head 15.1559 5.91033 0.218912
rclavicle -8.74653e-015 -4.29375e-014
rhumerus -57.1574 -72.5617 35.0202
rradius 12.72
rwrist 75.2795
rhand -9.51247 11.6823
rfingers 7.12502
rthumb 16.4531 -17.64
lclavicle -8.74653e-015 -4.29375e-014
lhumerus -19.6626 19.6625 15.2154
lradius 15.8755
lwrist -70.787
lhand -7.65423 22.5256
lfingers 7.12502
lthumb 18.2415 51.6903
rfemur -36.6767 10.4365 16.9974
rtibia 40.128
rfoot -22.9892 -39.4067
rtoes 40.5176
lfemur -29.4738 -13.5699 -13.4713
ltibia 39.5168
lfoot -5.1625 21.5681
ltoes -39.0735
749
root 2.26139 17.7154 2.14536 25.6824 -31.129 350.519
lowerback -16.7516 4.77305 0.149118
upperback -11.4746 6.02492 -4.13757
thorax -2.44892 2.80475 -3.5697
lowerneck -9.17219 8.7651 2.77889
upperneck 38.4779 14.5216 -4.92207
head 15.7789 5.76554 -0.31009
rclavicle 4.49253e-014 6.04305e-014
rhumerus -49.4656 -73.2868 26.6362
rradius 12.5973
rwrist 76.6382
rhand -9.39981 11.3687
rfingers 7.12502
rthumb 16.5615 -17.9446
lclavicle 4.49253e-014 6.04305e-014
lhumerus -19.3863 17.8572 16.8142
lradius 15.9538
lwrist -69.7813
lhand -7.20722 22.5931
lfingers 7.12502
lthumb 18.6715 51.717
rfemur -38.2095 10.9113 17.2682
rtibia 40.3755
rfoot -23.2283 -38.7875
rtoes 40.5625
lfemur -30.4283 -14.356 -13.5364
ltibia 39.5234
lfoot -4.1811 20.2662
ltoes -37.7219
750
root 2.34305 17.7514 2.25567 25.6019 -28.9552 351.307
lowerback -16.4715 4.68241 -0.117103
upperback -11.5715 5.9521 -4.2077
thorax -2.72287 2.78533 -3.5356
lowerneck -8.9035 8.04099 2.19469
upperneck 38.6191 13.4804 -4.65641
head 15.6385 5.30068 -0.291184
rclavicle 2.98177e-015 -3.97569e-014
rhumerus -32.4862 -68.4602 8.75155
rradius 12.6059
rwrist 72.9586
rhand -8.90127 10.6472
rfingers 7.12502
rthumb 17.0415 -18.6254
lclavicle 2.98177e-015 -3.97569e-014
lhumerus -19.4437 14.0857 18.8256
lradius 16.2146
lwrist -67.5951
lhand -7.21393 22.6006
lfingers 7.12502
lthumb 18.6651 51.7251
rfemur -39.8648 10.9886 17.4711
rtibia 40.5576
rfoot -20.046 -38.6836
rtoes 37.3187
lfemur -31.4076 -15.2463 -13.7267
ltibia 39.5753
lfoot -1.77014 18.889
ltoes -39.6703
751
root 2.41833 17.7896 2.35965 25.452 -26.3536 351.704
lowerback -16.1537 4.56605 -0.0241775
upperback -11.3937 5.81956 -4.05743
thorax -2.70726 2.73205 -3.4615
lowerneck -8.50583 7.17377 0.733577
upperneck 38.3095 12.1646 -3.86445
head 15.1167 4.69022 0.0453853
rclavicle -2.32578e-014 -2.22639e-014
rhumerus -21.0294 -60.2622 -3.51523
rradius 12.9155
rwrist 67.0022
rhand -8.44506 9.62451
rfingers 7.12502
rthumb 17.4806 -19.6095
lclavicle -2.32578e-014 -2.22639e-014
lhumerus -19.4808 10.4308 21.1292
lradius 16.6601
lwrist -65.2811
lhand -6.43159 22.4952
lfingers 7.12502
lthumb 19.4174 51.5457
rfemur -41.1702 10.9365 18.1932
rtibia 40.6574
rfoot -16.6713 -38.2511
rtoes 31.1431
lfemur -32.178 -15.8394 -13.5485
ltibia 39.6958
lfoot 0.392274 16.733
ltoes -40.5112
